<?xml version="1.0" encoding="UTF-8"?>
<svg version="1.1" xmlns="http://www.w3.org/2000/svg" width="500" height="146">
<path d="M0 0 C5.30182111 4.09856751 10.1108413 8.57011533 14.8639679 13.28964233 C15.66678696 14.08343292 16.46960602 14.87722351 17.29675293 15.69506836 C18.98094512 17.36483578 20.66241122 19.03735693 22.34126282 20.7124939 C24.90481118 23.26408928 27.48644882 25.79641 30.06904602 28.32870483 C31.71016609 29.96036539 33.35017871 31.59314073 34.9889679 33.22714233 C35.75771744 33.97635956 36.52646698 34.72557678 37.31851196 35.49749756 C42.10086579 40.32051886 45.96794799 44.88602623 46.14846802 52.02923584 C45.59347832 61.19466864 39.49857678 67.03120733 33.09443665 72.89120483 C32.29235779 73.57219238 32.29235779 73.57219238 31.47407532 74.26693726 C27.1984163 77.90969899 23.17676767 81.75088349 19.2389679 85.75448608 C18.72492401 86.27638519 18.21088013 86.7982843 17.68125916 87.33599854 C15.54443175 89.50937906 13.41065563 91.68557003 11.28608704 93.87094116 C9.71464776 95.48475526 8.1338646 97.0889246 6.5514679 98.69198608 C6.07740005 99.18467484 5.60333221 99.67736359 5.11489868 100.1849823 C0.9501346 104.38141338 -2.83143403 106.1670365 -8.71806335 106.32870483 C-14.03348895 106.20970277 -18.10511092 104.66532619 -21.90556335 100.89120483 C-24.862867 96.07304148 -25.3417941 91.93736307 -25.30961609 86.41073608 C-25.31647934 85.58069061 -25.32334259 84.75064514 -25.33041382 83.89544678 C-25.34864431 81.1646898 -25.34485017 78.43450932 -25.3391571 75.70370483 C-25.34372029 73.79851088 -25.34902627 71.89331858 -25.3550415 69.98812866 C-25.36396492 66.00034893 -25.36155773 62.01276955 -25.35160828 58.0249939 C-25.34011201 52.92044962 -25.36034409 47.81659645 -25.38952541 42.71214294 C-25.40788923 38.77954738 -25.40759472 34.84711744 -25.40188789 30.91448975 C-25.40173474 29.03266428 -25.40777399 27.15082755 -25.42017937 25.26904297 C-25.43509334 22.63614767 -25.42441029 20.0045295 -25.40727234 17.37167358 C-25.41694031 16.598508 -25.42660828 15.82534241 -25.43656921 15.02874756 C-25.36589035 9.83108246 -24.20034241 6.88639695 -20.90556335 2.89120483 C-14.67530352 -1.91128712 -7.3016264 -4.24861658 0 0 Z " fill="#71FEFF" transform="translate(42.90556335449219,19.108795166015625)"/>
<path d="M0 0 C1.485 0.99 1.485 0.99 3 2 C3 2.66 3 3.32 3 4 C3.66 4 4.32 4 5 4 C5 4.66 5 5.32 5 6 C5.66 6 6.32 6 7 6 C7.53625 6.680625 8.0725 7.36125 8.625 8.0625 C10.54822462 10.44122519 12.23536845 12.14286408 14.5390625 14.08984375 C19.47728579 18.36078499 24.12017425 22.89924694 28.75 27.5 C29.58660156 28.31597656 30.42320313 29.13195313 31.28515625 29.97265625 C41.23605053 39.86006795 41.23605053 39.86006795 42.53125 46.87890625 C42.5209375 47.76449219 42.510625 48.65007812 42.5 49.5625 C42.51546875 50.89474609 42.51546875 50.89474609 42.53125 52.25390625 C41.07843034 59.76370201 34.14756198 65.14289692 28.96484375 70.30078125 C28.08977676 71.17776169 27.21470978 72.05474213 26.31312561 72.95829773 C23.998405 75.27472177 21.67889537 77.58622087 19.35772705 79.8961792 C17.93417796 81.3158129 16.51460735 82.73930233 15.09643555 84.16430664 C12.37038804 86.90267313 9.6375482 89.63406424 6.90234375 92.36328125 C5.6319651 93.63973259 5.6319651 93.63973259 4.33592224 94.94197083 C3.54822952 95.72335922 2.7605368 96.50474762 1.94897461 97.30981445 C1.25710556 98.00009232 0.56523651 98.69037018 -0.14759827 99.40156555 C-4.25473429 102.94560656 -9.40313867 102.38428054 -14.5546875 102.35546875 C-19.67765888 101.82690821 -23.83200775 100.0012926 -28 97 C-30 94 -30 94 -29.98217773 90.71069336 C-28.73945758 86.01566388 -26.72426374 83.91562442 -23.28515625 80.62890625 C-22.71421738 80.06171371 -22.1432785 79.49452118 -21.55503845 78.91014099 C-20.35234623 77.72083677 -19.14250712 76.53872125 -17.92602539 75.36352539 C-16.05782174 73.55797864 -14.21214154 71.73162301 -12.36914062 69.90039062 C-11.19655475 68.7461325 -10.0227677 67.59309307 -8.84765625 66.44140625 C-8.29239761 65.89464737 -7.73713898 65.34788849 -7.16505432 64.78456116 C-3.23445179 61 -3.23445179 61 -1 61 C1.49003627 54.85791054 3.45808422 49.70943339 0.89697266 43.19384766 C-1.45483452 39.23421555 -4.29581144 36.38302892 -7.6015625 33.2109375 C-8.23863129 32.58522858 -8.87570007 31.95951965 -9.53207397 31.31484985 C-11.55593433 29.32746383 -13.5891763 27.35012474 -15.625 25.375 C-18.31329743 22.7664402 -20.99154791 20.1481537 -23.6640625 17.5234375 C-24.59371323 16.6311293 -24.59371323 16.6311293 -25.54214478 15.72079468 C-26.11298798 15.15986115 -26.68383118 14.59892761 -27.27197266 14.02099609 C-27.77588531 13.53279388 -28.27979797 13.04459167 -28.79898071 12.54159546 C-30.23952282 10.69255507 -30.69035799 9.31554467 -31 7 C-29.06434292 2.44551276 -26.28439777 0.34429312 -22 -2 C-14.5255975 -4.93299338 -6.61205681 -4.86180648 0 0 Z " fill="#5504FF" transform="translate(93,22)"/>
<path d="M0 0 C5.30182111 4.09856751 10.1108413 8.57011533 14.8639679 13.28964233 C15.66678696 14.08343292 16.46960602 14.87722351 17.29675293 15.69506836 C18.98094512 17.36483578 20.66241122 19.03735693 22.34126282 20.7124939 C24.90481118 23.26408928 27.48644882 25.79641 30.06904602 28.32870483 C31.71016609 29.96036539 33.35017871 31.59314073 34.9889679 33.22714233 C35.75771744 33.97635956 36.52646698 34.72557678 37.31851196 35.49749756 C42.10086579 40.32051886 45.96794799 44.88602623 46.14846802 52.02923584 C45.59319378 61.1993678 39.50093175 67.01964571 33.09443665 72.89120483 C28.49443665 76.89120483 28.49443665 76.89120483 26.09443665 76.89120483 C25.77732727 76.17577515 25.4602179 75.46034546 25.13349915 74.72323608 C19.53450726 62.76737773 11.58811398 53.23792211 2.6139679 43.62167358 C0.65021652 41.49351511 -1.23646852 39.33743496 -3.11650085 37.13729858 C-5.78970114 34.06523181 -8.58740141 31.20177805 -11.5266571 28.38339233 C-12.31620789 27.62413452 -13.10575867 26.86487671 -13.91923523 26.08261108 C-15.55334215 24.52092631 -17.19682737 22.96900352 -18.84892273 21.42636108 C-19.62945007 20.6696814 -20.40997742 19.91300171 -21.2141571 19.13339233 C-21.92370544 18.46162964 -22.63325378 17.78986694 -23.36430359 17.0977478 C-25.40068586 14.1823632 -25.30102539 12.37859307 -24.90556335 8.89120483 C-22.21965962 3.72600535 -18.6443582 0.07667637 -12.98368835 -1.71817017 C-8.54987572 -2.55159359 -3.9535516 -2.30046348 0 0 Z " fill="#02D7FF" transform="translate(42.90556335449219,19.108795166015625)"/>
<path d="M0 0 C4.49625 -0.061875 8.9925 -0.12375 13.625 -0.1875 C15.03217285 -0.21481201 16.4393457 -0.24212402 17.88916016 -0.27026367 C19.01112793 -0.27775635 20.1330957 -0.28524902 21.2890625 -0.29296875 C23.00150146 -0.31653442 23.00150146 -0.31653442 24.74853516 -0.34057617 C29.55700613 0.16308932 32.82320095 1.88681171 36.3125 5.1875 C38.47245176 8.7874196 39.23032886 11.80472431 39 16 C37.66152216 19.37806311 36.01228176 21.98157735 34 25 C34.598125 25.2475 35.19625 25.495 35.8125 25.75 C39.30997997 27.74855998 40.63724461 29.88582273 41.875 33.6875 C42.04706135 38.24712579 41.03120051 41.92209363 39 46 C35.50017012 49.49982988 32.80238965 50.93578184 27.8137207 51.11352539 C26.53070068 51.10828857 25.24768066 51.10305176 23.92578125 51.09765625 C22.67450439 51.09515869 21.42322754 51.09266113 20.1340332 51.09008789 C17.74737427 51.07643188 17.74737427 51.07643188 15.3125 51.0625 C10.259375 51.041875 5.20625 51.02125 0 51 C0 34.17 0 17.34 0 0 Z M10 9 C10 12.96 10 16.92 10 21 C12.24893954 21.10823773 14.49937575 21.18569645 16.75 21.25 C18.62945312 21.31960937 18.62945312 21.31960937 20.546875 21.390625 C24.04573808 21.29466984 24.04573808 21.29466984 26.42578125 19.14453125 C28.18176182 17.08779434 28.18176182 17.08779434 28.4375 14.4375 C27.89949644 11.4400516 27.49447408 10.73615396 25 9 C22.35003674 8.7827899 19.94923442 8.71648446 17.3125 8.8125 C16.61060547 8.82603516 15.90871094 8.83957031 15.18554688 8.85351562 C13.45670171 8.88879818 11.72825235 8.94260417 10 9 Z M10 29 C10 33.29 10 37.58 10 42 C12.75105422 42.10812003 15.49785087 42.18734945 18.25 42.25 C19.41595703 42.30027344 19.41595703 42.30027344 20.60546875 42.3515625 C25.39790236 42.44741712 25.39790236 42.44741712 29.515625 40.140625 C31.15698803 38.07654262 31.15698803 38.07654262 31.5 35.5 C30.8127489 32.06374451 29.82255982 31.08623986 27 29 C24.06747629 28.51124605 21.21246168 28.62226533 18.25 28.75 C17.45722656 28.76804687 16.66445312 28.78609375 15.84765625 28.8046875 C13.89791652 28.85166918 11.94880122 28.92340956 10 29 Z " fill="#0096FF" transform="translate(164,46)"/>
<path d="M0 0 C4.30852884 3.1061487 7.08240306 6.5058684 10.0625 10.8125 C10.48337891 11.40353516 10.90425781 11.99457031 11.33789062 12.60351562 C12.58983056 14.38340542 13.80214696 16.1833299 15 18 C15.40718262 18.60505371 15.81436523 19.21010742 16.23388672 19.83349609 C17.84808163 22.39305891 19.02524612 24.29040114 18.91577148 27.36743164 C17.70313653 30.85339345 15.56792502 32.96924316 12.9765625 35.484375 C12.2235939 36.23596893 12.2235939 36.23596893 11.45541382 37.00274658 C10.39589453 38.05624155 9.3315361 39.10488931 8.26269531 40.14892578 C6.62697819 41.74806605 5.00790082 43.36270165 3.390625 44.98046875 C2.35771062 46.00355386 1.32388667 47.02572164 0.2890625 48.046875 C-0.19541351 48.52912537 -0.67988953 49.01137573 -1.17904663 49.50823975 C-6.26271075 54.44997217 -10.70441855 54.39378122 -17.5546875 54.35546875 C-22.67765888 53.82690821 -26.83200775 52.0012926 -31 49 C-33 46 -33 46 -32.98217773 42.71069336 C-31.73945758 38.01566388 -29.72426374 35.91562442 -26.28515625 32.62890625 C-25.71421738 32.06171371 -25.1432785 31.49452118 -24.55503845 30.91014099 C-23.35234623 29.72083677 -22.14250712 28.53872125 -20.92602539 27.36352539 C-19.05782174 25.55797864 -17.21214154 23.73162301 -15.36914062 21.90039062 C-14.19655475 20.7461325 -13.0227677 19.59309307 -11.84765625 18.44140625 C-11.29239761 17.89464737 -10.73713898 17.34788849 -10.16505432 16.78456116 C-6.23445179 13 -6.23445179 13 -4 13 C-2.14038586 8.7494534 -1.06795435 4.50066475 0 0 Z " fill="#0095FF" transform="translate(96,70)"/>
<path d="M0 0 C3.69776369 1.43801921 6.41123465 2.97977376 9 6 C10.3921875 4.7934375 10.3921875 4.7934375 11.8125 3.5625 C15.60632421 0.27451902 18.90071116 -0.30877005 23.94140625 -0.20703125 C27.25234263 0.12594717 29.28662902 1.08830681 32 3 C36.29294775 8.55477265 37.13268987 14.12547607 37.09765625 20.95703125 C37.09443359 22.06884766 37.09121094 23.18066406 37.08789062 24.32617188 C37.07532227 26.0519043 37.07532227 26.0519043 37.0625 27.8125 C37.05798828 28.98232422 37.05347656 30.15214844 37.04882812 31.35742188 C37.0370693 34.23833358 37.02063426 37.11914044 37 40 C33.7 40 30.4 40 27 40 C26.98541748 39.29915283 26.97083496 38.59830566 26.95581055 37.8762207 C26.88114513 34.68776991 26.78454525 31.50034487 26.6875 28.3125 C26.65366211 26.65831055 26.65366211 26.65831055 26.61914062 24.97070312 C26.58369141 23.90400391 26.54824219 22.83730469 26.51171875 21.73828125 C26.48553467 20.75899658 26.45935059 19.77971191 26.43237305 18.77075195 C25.92923423 15.54651571 24.92737536 13.61678158 23 11 C20.14944378 9.90363222 18.70268482 9.75907949 15.8125 10.75 C13.24190945 12.52282107 12.1567163 14.38280709 11.39477539 17.38354492 C11.01620226 19.89261618 10.798032 22.32929145 10.68359375 24.86328125 C10.62075195 26.19262695 10.62075195 26.19262695 10.55664062 27.54882812 C10.51732422 28.46083984 10.47800781 29.37285156 10.4375 30.3125 C10.37272461 31.70952148 10.37272461 31.70952148 10.30664062 33.13476562 C10.20102876 35.42302277 10.10005565 37.71149318 10 40 C7.03 40 4.06 40 1 40 C0.95101563 38.56527344 0.90203125 37.13054687 0.8515625 35.65234375 C0.77648996 33.74737811 0.7009441 31.84243109 0.625 29.9375 C0.5940625 28.99455078 0.563125 28.05160156 0.53125 27.08007812 C0.30851302 21.75295191 -0.05135441 16.99091882 -2 12 C-4.81598187 9.69739241 -4.81598187 9.69739241 -8 10.125 C-11.44787127 11.13062912 -12.27822038 11.91892068 -14 15 C-14.9731681 17.9195043 -15.1929546 20.05444951 -15.31640625 23.10546875 C-15.35830078 24.08837891 -15.40019531 25.07128906 -15.44335938 26.08398438 C-15.48267578 27.10814453 -15.52199219 28.13230469 -15.5625 29.1875 C-15.60568359 30.22326172 -15.64886719 31.25902344 -15.69335938 32.32617188 C-15.79944263 34.88395702 -15.90022586 37.44196098 -16 40 C-19.3 40 -22.6 40 -26 40 C-26 27.13 -26 14.26 -26 1 C-22.7 1 -19.4 1 -16 1 C-15.67 1.99 -15.34 2.98 -15 4 C-14.195625 3.34 -13.39125 2.68 -12.5625 2 C-8.52842578 -0.67984599 -4.6986116 -0.70731788 0 0 Z " fill="#0096FF" transform="translate(329,57)"/>
<path d="M0 0 C5.06835996 2.95483333 8.73037257 6.41471071 10.6328125 12.0546875 C12.2771457 19.56866578 11.63855177 24.73303307 8.125 31.625 C4.10540424 36.38504761 -0.4079094 39.41415588 -6.625 40.4375 C-12.77297684 40.76609876 -18.56923402 39.68301246 -23.3671875 35.6640625 C-28.57189907 30.02742466 -30.84199719 24.56763742 -30.62109375 16.875 C-29.78529096 11.38509535 -27.50910353 6.35817751 -23.2421875 2.73046875 C-16.09595728 -1.84470078 -8.0129176 -3.61276054 0 0 Z M-17.25 10.4375 C-19.92741863 14.45362795 -20.94960009 17.64024224 -20.25 22.4375 C-18.21006092 26.0953218 -16.74580738 28.10696174 -13.25 30.4375 C-8.77119109 30.87093312 -6.36541327 31.01945475 -2.375 28.9375 C0.43175396 25.63543652 1.57193845 22.77572687 1.75 18.4375 C0.65845711 14.73838241 -0.38218886 12.33523567 -3.0625 9.5625 C-8.47387657 6.77950634 -12.22515335 6.97593898 -17.25 10.4375 Z " fill="#0096FF" transform="translate(285.25,58.5625)"/>
<path d="M0 0 C5.03929609 3.68755358 8.53257084 8.1508713 9.8203125 14.33203125 C10.44195415 20.92143274 9.40285088 27.20330084 5.12109375 32.390625 C0.05869947 37.17453786 -4.4954039 39.28340547 -11.4375 39.35546875 C-18.05247744 38.92941936 -22.62813 36.81271215 -27.4296875 32.14453125 C-31.18440046 26.11017114 -32.8597648 20.47499508 -31.6796875 13.39453125 C-30.08320156 6.80902675 -26.51580954 3.17594914 -21.1796875 -0.66796875 C-14.72952048 -4.50320319 -6.33379655 -3.62847049 0 0 Z M-17.1796875 8.33203125 C-20.9727261 12.01970767 -22.08708533 15.05370736 -22.1796875 20.33203125 C-20.68830888 24.41369906 -19.15448306 27.39834692 -15.1796875 29.33203125 C-10.53438572 29.84817589 -8.33617455 30.01083886 -4.3046875 27.64453125 C-1.55448954 24.65166876 -0.25566643 22.53095096 -0.11328125 18.41015625 C-0.35601496 14.49699458 -0.97498388 12.60691896 -3.3671875 9.39453125 C-8.05638557 5.955786 -12.08301949 5.38132872 -17.1796875 8.33203125 Z " fill="#0096FF" transform="translate(241.1796875,59.66796875)"/>
<path d="M0 0 C3.3 0 6.6 0 10 0 C13.94897487 7.44229879 16.921517 15.16386145 20 23 C22.97 15.41 25.94 7.82 29 0 C32.63 0 36.26 0 40 0 C37.65692062 8.56289009 34.48123208 16.69287584 31.12182617 24.89624023 C30.18724035 27.18813673 29.27230402 29.48728918 28.35742188 31.78710938 C21.35099348 49.11183302 21.35099348 49.11183302 13.6875 52.4375 C9.36065615 53.09752703 5.37357662 53.13457159 1 53 C1 50.03 1 47.06 1 44 C6.445 43.505 6.445 43.505 12 43 C13.15755505 36.93282941 12.79155076 33.01497385 10.25390625 27.32421875 C9.96394272 26.63237991 9.67397919 25.94054108 9.37522888 25.22773743 C8.45481913 23.03988782 7.51005383 20.86371289 6.5625 18.6875 C5.62324808 16.49174309 4.68927986 14.29390341 3.76048279 12.09370422 C3.18332014 10.73064135 2.59930852 9.37045343 2.00770569 8.01359558 C0.78370302 5.15857177 0 3.14321466 0 0 Z " fill="#0096FF" transform="translate(438,58)"/>
<path d="M0 0 C4.37504443 2.20139656 6.22405054 4.80840561 7.91015625 9.3046875 C8.9721429 12.70708868 9.0252427 15.82705115 9.0078125 19.3828125 C9.00458984 20.54296875 9.00136719 21.703125 8.99804688 22.8984375 C8.98547852 24.70828125 8.98547852 24.70828125 8.97265625 26.5546875 C8.96814453 27.77671875 8.96363281 28.99875 8.95898438 30.2578125 C8.9472044 33.27348696 8.93075478 36.28906248 8.91015625 39.3046875 C5.61015625 39.3046875 2.31015625 39.3046875 -1.08984375 39.3046875 C-1.10442627 38.60384033 -1.11900879 37.90299316 -1.1340332 37.1809082 C-1.20869862 33.99245741 -1.3052985 30.80503237 -1.40234375 27.6171875 C-1.42490234 26.51439453 -1.44746094 25.41160156 -1.47070312 24.27539062 C-1.50615234 23.20869141 -1.54160156 22.14199219 -1.578125 21.04296875 C-1.60430908 20.06368408 -1.63049316 19.08439941 -1.6574707 18.07543945 C-2.16226096 14.84062034 -3.13604514 12.91795466 -5.08984375 10.3046875 C-8.69604196 9.05035769 -10.34947994 8.9681585 -13.83984375 10.5546875 C-16.61451583 12.71276578 -17.96552146 14.31286977 -18.40869141 17.84838867 C-18.4401123 18.83814697 -18.4715332 19.82790527 -18.50390625 20.84765625 C-18.56191406 22.45737305 -18.56191406 22.45737305 -18.62109375 24.09960938 C-18.6675 25.77893555 -18.6675 25.77893555 -18.71484375 27.4921875 C-18.77285156 29.18891602 -18.77285156 29.18891602 -18.83203125 30.91992188 C-18.92636908 33.71468 -19.01196027 36.50943028 -19.08984375 39.3046875 C-22.38984375 39.3046875 -25.68984375 39.3046875 -29.08984375 39.3046875 C-29.08984375 26.4346875 -29.08984375 13.5646875 -29.08984375 0.3046875 C-26.11984375 0.3046875 -23.14984375 0.3046875 -20.08984375 0.3046875 C-19.75984375 1.2946875 -19.42984375 2.2846875 -19.08984375 3.3046875 C-18.14109375 2.6446875 -17.19234375 1.9846875 -16.21484375 1.3046875 C-11.07139921 -1.6106252 -5.60117798 -1.8635695 0 0 Z " fill="#0096FF" transform="translate(424.08984375,57.6953125)"/>
<path d="M0 0 C3.50252011 2.04313673 5.77361702 4.09787233 7 8 C7.45522199 13.00744188 7.1111205 15.99998792 4 20 C0.71721948 23.28278052 -2.41627533 23.84194053 -7 24 C-10.62525975 22.60566933 -13.5677556 21.07230872 -16 18 C-17.50650776 13.48047673 -17.74563919 9.64040622 -15.75 5.25 C-11.31868285 -0.44740776 -6.9207316 -1.02072379 0 0 Z " fill="#590696" transform="translate(132,101)"/>
<path d="M0 0 C3.3 0 6.6 0 10 0 C10 12.87 10 25.74 10 39 C6.7 39 3.4 39 0 39 C0 26.13 0 13.26 0 0 Z " fill="#0096FF" transform="translate(375,58)"/>
<path d="M0 0 C2.87029869 1.79393668 4.49131638 2.98263276 6 6 C6.54016597 10.50728651 6.60322525 13.94994123 4.3125 17.9375 C0.66907369 21.18704239 -1.59743193 22.02504586 -6.5 21.9375 C-10.81036857 20.78293699 -12.38833491 19.61024292 -15 16 C-15.9635718 13.26142751 -16.29990297 10.8915173 -16 8 C-12.2020536 0.67538909 -7.8882218 -1.16247479 0 0 Z " fill="#590696" transform="translate(129,17)"/>
<path d="M0 0 C1.9375 1.0625 1.9375 1.0625 3 3 C2.8125 6.625 2.8125 6.625 2 10 C-0.79870027 11.39935013 -2.90498792 11.25265405 -6 11 C-7.9375 9.9375 -7.9375 9.9375 -9 8 C-8.8125 4.375 -8.8125 4.375 -8 1 C-5.20129973 -0.39935013 -3.09501208 -0.25265405 0 0 Z " fill="#0096FF" transform="translate(383,42)"/>
</svg>
